<mxfile host="app.diagrams.net" agent="Mozilla/5.0 (Macintosh; Intel Mac OS X 10_15_7) AppleWebKit/537.36 (KHTML, like Gecko) Chrome/138.0.0.0 Safari/537.36" version="28.0.7">
  <diagram name="Page-1" id="wVqoXy-dvgbrVmqmg898">
    <mxGraphModel dx="604" dy="467" grid="1" gridSize="10" guides="1" tooltips="1" connect="1" arrows="1" fold="1" page="1" pageScale="1" pageWidth="850" pageHeight="1100" math="0" shadow="0">
      <root>
        <mxCell id="0" />
        <mxCell id="1" parent="0" />
        <mxCell id="oKOKhQD7-OJcF7SCPOgU-1" value="customer" style="swimlane;childLayout=stackLayout;horizontal=1;startSize=50;horizontalStack=0;rounded=1;fontSize=14;fontStyle=0;strokeWidth=2;resizeParent=0;resizeLast=1;shadow=0;dashed=0;align=center;arcSize=4;whiteSpace=wrap;html=1;" parent="1" vertex="1">
          <mxGeometry x="110" y="170" width="160" height="170" as="geometry" />
        </mxCell>
        <mxCell id="oKOKhQD7-OJcF7SCPOgU-2" value="customer_id&lt;div&gt;customer_first_name&lt;/div&gt;&lt;div&gt;customer_last_name&lt;/div&gt;&lt;div&gt;customer_postal_code&lt;/div&gt;" style="align=left;strokeColor=none;fillColor=none;spacingLeft=4;spacingRight=4;fontSize=12;verticalAlign=top;resizable=0;rotatable=0;part=1;html=1;whiteSpace=wrap;" parent="oKOKhQD7-OJcF7SCPOgU-1" vertex="1">
          <mxGeometry y="50" width="160" height="120" as="geometry" />
        </mxCell>
        <mxCell id="oKOKhQD7-OJcF7SCPOgU-3" value="&lt;span style=&quot;color: rgb(31, 35, 40); font-family: &amp;quot;Monaspace Neon&amp;quot;, ui-monospace, SFMono-Regular, &amp;quot;SF Mono&amp;quot;, Menlo, Consolas, &amp;quot;Liberation Mono&amp;quot;, monospace; font-size: 13.6px; text-align: start; white-space-collapse: break-spaces; background-color: rgba(129, 139, 152, 0.12);&quot;&gt;customer_purchases&lt;/span&gt;" style="swimlane;childLayout=stackLayout;horizontal=1;startSize=50;horizontalStack=0;rounded=1;fontSize=14;fontStyle=0;strokeWidth=2;resizeParent=0;resizeLast=1;shadow=0;dashed=0;align=center;arcSize=4;whiteSpace=wrap;html=1;" parent="1" vertex="1">
          <mxGeometry x="360" y="170" width="160" height="220" as="geometry" />
        </mxCell>
        <mxCell id="oKOKhQD7-OJcF7SCPOgU-4" value="product_id&lt;div&gt;vendor_id&lt;/div&gt;&lt;div&gt;market_date&lt;/div&gt;&lt;div&gt;customer_id&lt;/div&gt;&lt;div&gt;quantity&lt;/div&gt;&lt;div&gt;cost_to_customer_per_qty&lt;/div&gt;&lt;div&gt;transaction_time&lt;/div&gt;" style="align=left;strokeColor=none;fillColor=none;spacingLeft=4;spacingRight=4;fontSize=12;verticalAlign=top;resizable=0;rotatable=0;part=1;html=1;whiteSpace=wrap;" parent="oKOKhQD7-OJcF7SCPOgU-3" vertex="1">
          <mxGeometry y="50" width="160" height="170" as="geometry" />
        </mxCell>
        <mxCell id="oKOKhQD7-OJcF7SCPOgU-7" value="" style="edgeStyle=entityRelationEdgeStyle;fontSize=12;html=1;endArrow=ERoneToMany;rounded=0;entryX=0.006;entryY=0.353;entryDx=0;entryDy=0;entryPerimeter=0;exitX=0.988;exitY=0.125;exitDx=0;exitDy=0;exitPerimeter=0;" parent="1" source="oKOKhQD7-OJcF7SCPOgU-2" target="oKOKhQD7-OJcF7SCPOgU-4" edge="1">
          <mxGeometry width="100" height="100" relative="1" as="geometry">
            <mxPoint x="260" y="330" as="sourcePoint" />
            <mxPoint x="360" y="230" as="targetPoint" />
          </mxGeometry>
        </mxCell>
      </root>
    </mxGraphModel>
  </diagram>
</mxfile>
